<svg width="24" height="24" viewBox="0 0 24 24" fill="none" xmlns="http://www.w3.org/2000/svg">
<path fill-rule="evenodd" clip-rule="evenodd" d="M12.0217 0.0900879C5.40745 0.0900879 0.0439453 5.54404 0.0439453 12.2724C0.0439453 17.6549 3.47594 22.2214 8.23509 23.8323C8.8337 23.945 9.05347 23.568 9.05347 23.2462C9.05347 22.9557 9.04236 21.9961 9.0372 20.9781C5.70497 21.7151 5.00183 19.5407 5.00183 19.5407C4.45697 18.1326 3.67191 17.7582 3.67191 17.7582C2.58517 17.0021 3.75383 17.0176 3.75383 17.0176C4.95661 17.1034 5.58993 18.273 5.58993 18.273C6.65823 20.1355 8.39198 19.597 9.07548 19.2857C9.18299 18.4986 9.4934 17.9607 9.83595 17.6567C7.17552 17.3487 4.37882 16.3041 4.37882 11.6361C4.37882 10.306 4.84672 9.21928 5.61294 8.36613C5.48857 8.05909 5.07859 6.82023 5.72897 5.14218C5.72897 5.14218 6.73479 4.81476 9.02371 6.39093C9.97915 6.12101 11.0038 5.98564 12.0217 5.981C13.0396 5.98564 14.0651 6.12101 15.0223 6.39093C17.3085 4.81476 18.3129 5.14218 18.3129 5.14218C18.9649 6.82023 18.5547 8.05909 18.4303 8.36613C19.1983 9.21928 19.6631 10.306 19.6631 11.6361C19.6631 16.3152 16.861 17.3454 14.1938 17.647C14.6234 18.0251 15.0063 18.7665 15.0063 19.9031C15.0063 21.5329 14.9924 22.8448 14.9924 23.2462C14.9924 23.5704 15.208 23.9503 15.8151 23.8307C20.5717 22.218 23.9993 17.6531 23.9993 12.2724C23.9993 5.54404 18.6366 0.0900879 12.0217 0.0900879Z" fill="#43403B"/>
<path fill-rule="evenodd" clip-rule="evenodd" d="M4.58054 17.5813C4.55416 17.642 4.46054 17.6599 4.37525 17.6184C4.28837 17.5786 4.23958 17.4961 4.26775 17.4354C4.29353 17.3731 4.38735 17.3559 4.47403 17.3973C4.5611 17.4372 4.61069 17.5205 4.58054 17.5813Z" fill="#43403B"/>
<path fill-rule="evenodd" clip-rule="evenodd" d="M5.0657 18.1316C5.00857 18.1855 4.8969 18.1605 4.82114 18.0753C4.74279 17.9904 4.72811 17.8768 4.78603 17.8221C4.84494 17.7683 4.95323 17.7935 5.03178 17.8784C5.11013 17.9644 5.1254 18.0771 5.0657 18.1316Z" fill="#43403B"/>
<path fill-rule="evenodd" clip-rule="evenodd" d="M5.53796 18.8332C5.46457 18.8851 5.34457 18.8365 5.27039 18.7281C5.197 18.6198 5.197 18.4899 5.27198 18.4378C5.34636 18.3858 5.46457 18.4326 5.53975 18.5401C5.61294 18.6501 5.61294 18.7802 5.53796 18.8332Z" fill="#43403B"/>
<path fill-rule="evenodd" clip-rule="evenodd" d="M6.18497 19.5111C6.11932 19.5847 5.97948 19.5649 5.87714 19.4645C5.77241 19.3662 5.74325 19.2268 5.8091 19.1532C5.87555 19.0794 6.01618 19.1001 6.11932 19.1998C6.22325 19.2978 6.25499 19.4383 6.18497 19.5111Z" fill="#43403B"/>
<path fill-rule="evenodd" clip-rule="evenodd" d="M7.07753 19.9047C7.04857 20.0001 6.9139 20.0435 6.77823 20.0029C6.64276 19.9612 6.55409 19.8494 6.58147 19.753C6.60963 19.6569 6.7449 19.6117 6.88157 19.6551C7.01684 19.6967 7.1057 19.8076 7.07753 19.9047Z" fill="#43403B"/>
<path fill-rule="evenodd" clip-rule="evenodd" d="M8.05776 19.9777C8.06114 20.0782 7.94609 20.1615 7.80368 20.1631C7.66047 20.1665 7.54464 20.0852 7.54305 19.9864C7.54305 19.8849 7.65552 19.8024 7.79872 19.8C7.94114 19.7971 8.05776 19.8778 8.05776 19.9777Z" fill="#43403B"/>
<path fill-rule="evenodd" clip-rule="evenodd" d="M8.96996 19.8197C8.98702 19.9178 8.88804 20.0184 8.74662 20.0451C8.60758 20.0711 8.47885 20.0106 8.4612 19.9133C8.44395 19.8129 8.54471 19.7122 8.68355 19.6862C8.82517 19.6612 8.95191 19.7201 8.96996 19.8197Z" fill="#43403B"/>
</svg>
